<svg width="19" height="19" viewBox="0 0 19 19" fill="none" xmlns="http://www.w3.org/2000/svg">
<path d="M7.32259 11.4792C6.77713 11.4792 6.33301 11.035 6.33301 10.4896C6.33301 9.94412 6.77713 9.5 7.32259 9.5C7.86805 9.5 8.31217 9.94412 8.31217 10.4896C8.31217 11.035 7.86805 11.4792 7.32259 11.4792Z" fill="#3D3D3D"/>
<path d="M11.8517 12.742C11.9522 12.8426 11.9515 13.0048 11.8517 13.1046C11.1764 13.7791 9.88204 13.8313 9.50125 13.8313C9.12045 13.8313 7.82608 13.7791 7.15158 13.1046C7.05104 13.0041 7.05104 12.8426 7.15158 12.742C7.25212 12.6415 7.41362 12.6415 7.51416 12.742C7.94008 13.1679 8.8505 13.3183 9.50125 13.3183C10.152 13.3183 11.0624 13.1671 11.4891 12.7412C11.5897 12.6415 11.752 12.6415 11.8517 12.742Z" fill="#3D3D3D"/>
<path d="M12.6667 10.4896C12.6667 11.0358 12.2225 11.4792 11.6771 11.4792C11.1308 11.4792 10.6875 11.035 10.6875 10.4896C10.6875 9.94412 11.1316 9.5 11.6771 9.5C12.2225 9.5 12.6667 9.94412 12.6667 10.4896Z" fill="#3D3D3D"/>
<path d="M9.5 0C4.25362 0 0 4.25362 0 9.5C0 14.7464 4.25362 19 9.5 19C14.7464 19 19 14.7464 19 9.5C19 4.25362 14.7464 0 9.5 0ZM15.0076 10.7659C15.029 10.9028 15.0401 11.0414 15.0401 11.1823C15.0401 13.3135 12.559 15.0417 9.49842 15.0417C6.43783 15.0417 3.95675 13.3135 3.95675 11.1823C3.95675 11.0406 3.96863 10.9012 3.99 10.7635C3.50787 10.5466 3.17142 10.0629 3.17142 9.5C3.17142 8.73446 3.79129 8.11458 4.55683 8.11458C4.92892 8.11458 5.26617 8.26183 5.51475 8.50092C6.47425 7.80979 7.7995 7.36804 9.27437 7.32688L9.97896 4.01375C9.99242 3.94963 10.0312 3.89342 10.0858 3.85779C10.1405 3.82217 10.2078 3.8095 10.2719 3.82296L12.574 4.31221C12.7363 3.98683 13.0696 3.76042 13.4583 3.76042C14.0046 3.76042 14.4479 4.20375 14.4479 4.75C14.4479 5.29625 14.0046 5.73958 13.4583 5.73958C12.9279 5.73958 12.498 5.32079 12.4735 4.79671L10.412 4.35813L9.78104 7.32688C11.2345 7.37754 12.5392 7.81929 13.486 8.5025C13.7354 8.26262 14.0735 8.11379 14.4471 8.11379C15.2127 8.11379 15.8325 8.73367 15.8325 9.49921C15.8318 10.0653 15.4929 10.5505 15.0076 10.7659Z" fill="#3D3D3D"/>
</svg>
